<svg xmlns="http://www.w3.org/2000/svg" width="38" height="20" viewBox="0 0 38 20" fill="none"
  preserveAspectRatio="none">
  <path
    d="M36 8.75C36.6904 8.75 37.25 9.30964 37.25 10C37.25 10.6904 36.6904 11.25 36 11.25L36 8.75ZM1.11612 10.8839C0.62796 10.3957 0.62796 9.60427 1.11612 9.11612L9.07107 1.16117C9.55922 0.673012 10.3507 0.673012 10.8388 1.16117C11.327 1.64932 11.327 2.44078 10.8388 2.92893L3.76777 10L10.8388 17.0711C11.327 17.5592 11.327 18.3507 10.8388 18.8388C10.3507 19.327 9.55922 19.327 9.07107 18.8388L1.11612 10.8839ZM36 11.25L2 11.25L2 8.75L36 8.75L36 11.25Z"
    fill="var(--icon-color, #009edb)" />
</svg>
