<svg xmlns="http://www.w3.org/2000/svg" width="38" height="20" viewBox="0 0 38 20" fill="none"
  preserveAspectRatio="none">
  <path
    d="M2 8.75C1.30964 8.75 0.75 9.30964 0.75 10C0.75 10.6904 1.30964 11.25 2 11.25L2 8.75ZM36.8839 10.8839C37.372 10.3957 37.372 9.60427 36.8839 9.11612L28.9289 1.16117C28.4408 0.673012 27.6493 0.673012 27.1612 1.16117C26.673 1.64932 26.673 2.44078 27.1612 2.92893L34.2322 10L27.1612 17.0711C26.673 17.5592 26.673 18.3507 27.1612 18.8388C27.6493 19.327 28.4408 19.327 28.9289 18.8388L36.8839 10.8839ZM2 11.25L36 11.25L36 8.75L2 8.75L2 11.25Z"
    fill="var(--icon-color, #009edb)" />
</svg>
